<?xml version="1.0" standalone="no"?>
<!DOCTYPE svg PUBLIC "-//W3C//DTD SVG 20010904//EN"
 "http://www.w3.org/TR/2001/REC-SVG-20010904/DTD/svg10.dtd">
<svg version="1.0" xmlns="http://www.w3.org/2000/svg"
 width="700.000000pt" height="700.000000pt" viewBox="0 0 700.000000 700.000000"
 preserveAspectRatio="xMidYMid meet">
<metadata>
Created by potrace 1.14, written by Peter Selinger 2001-2017
</metadata>
<g transform="translate(0.000000,700.000000) scale(0.100000,-0.100000)"
fill="#000000" stroke="none">
<path d="M2135 6692 c-89 -44 -125 -112 -130 -247 -2 -52 0 -95 4 -95 5 0 9
-19 9 -42 2 -45 27 -157 60 -268 30 -100 96 -234 167 -339 87 -129 108 -154
267 -313 110 -111 133 -138 114 -138 -57 0 -242 -78 -376 -159 -317 -191 -605
-448 -798 -709 -197 -267 -349 -592 -427 -912 -23 -93 -22 -90 -30 -148 -4
-28 -10 -50 -13 -48 -4 2 -7 -10 -8 -27 -1 -64 -16 -212 -22 -222 -3 -5 -6
-48 -5 -95 0 -47 -1 -69 -4 -50 -8 66 -18 49 -17 -31 1 -77 12 -122 16 -63 1
16 4 -7 7 -51 3 -44 3 -81 -1 -83 -5 -2 -8 -10 -8 -18 0 -10 5 -12 13 -8 9 6
9 4 -1 -8 -8 -10 -9 -19 -4 -22 6 -3 12 -21 14 -40 2 -19 0 -32 -4 -30 -4 3
-8 -2 -8 -10 0 -8 4 -18 10 -21 5 -3 10 -14 10 -23 0 -15 -2 -15 -10 -2 -7 10
-10 11 -10 2 0 -7 6 -15 14 -18 15 -6 18 -44 4 -44 -5 0 -2 -10 6 -22 7 -13
17 -43 20 -68 19 -128 105 -411 167 -548 56 -122 63 -136 102 -207 132 -237
345 -495 547 -665 36 -30 67 -58 70 -61 21 -24 233 -168 343 -233 185 -109
518 -242 707 -281 8 -2 16 -4 18 -5 4 -4 22 -8 48 -9 14 0 23 -4 21 -8 -3 -5
7 -8 21 -8 54 -1 147 -17 150 -25 2 -4 21 -6 43 -4 22 2 38 0 35 -4 -5 -9 2
-9 259 -11 176 -2 394 11 415 24 3 2 26 6 50 10 274 41 623 180 899 358 418
271 785 706 985 1172 86 198 160 430 165 514 1 7 7 11 16 7 8 -3 15 -1 15 3 0
5 -5 11 -11 13 -7 2 -8 17 -4 41 4 20 11 34 16 31 5 -3 9 0 9 5 0 6 -4 11 -8
11 -4 0 -6 16 -4 35 2 19 8 33 12 30 5 -3 8 23 7 57 -1 46 1 62 11 61 6 -2 12
2 12 7 0 6 -5 10 -12 10 -9 0 -9 3 0 12 7 7 8 17 1 30 -7 13 -6 18 2 18 9 0 9
3 0 14 -8 10 -9 16 -1 21 11 7 12 275 0 275 -4 0 -7 6 -7 13 0 34 -15 202 -18
207 -2 4 -6 24 -9 46 -11 92 -69 315 -113 434 -90 245 -207 460 -365 673 -113
151 -376 416 -492 496 -12 8 -23 18 -26 21 -3 4 -52 39 -110 77 -292 194 -615
329 -902 378 -18 3 -42 9 -53 12 -11 4 -32 5 -47 4 -16 -1 -28 2 -28 8 0 6
-12 10 -27 10 -54 -1 -133 14 -133 24 0 30 76 160 125 214 65 72 179 152 262
183 70 26 81 29 228 45 62 7 128 42 155 82 14 20 25 39 26 42 0 3 4 14 9 24
24 55 5 140 -43 190 -27 29 -100 73 -114 69 -5 -1 -8 1 -8 5 0 5 -33 8 -74 8
-41 0 -73 -3 -71 -6 2 -3 -28 -11 -68 -17 -148 -23 -328 -98 -457 -190 -62
-44 -85 -63 -154 -124 -32 -29 -46 -35 -46 -19 0 17 -71 133 -126 206 -131
175 -361 358 -559 444 -27 12 -59 26 -70 31 -41 20 -172 58 -250 74 -44 9 -91
19 -105 22 -14 4 -79 8 -145 9 -90 2 -128 -2 -150 -13z"/>
<path d="M942 3050 c0 -14 2 -19 5 -12 2 6 2 18 0 25 -3 6 -5 1 -5 -13z"/>
</g>
</svg>
