<svg aria-hidden="true" style="position: absolute; width: 0; height: 0; overflow: hidden;" version="1.1" xmlns="http://www.w3.org/2000/svg" xmlns:xlink="http://www.w3.org/1999/xlink">
<defs>
<symbol id="icon-left-arrow" viewBox="0 0 32 32">
<path fill="#7c7c7c" style="fill: var(--color1, #7c7c7c)" d="M1.25 14.75h26.472l-4.385-4.364c-0.489-0.487-0.491-1.278-0.004-1.768s1.279-0.491 1.768-0.004l6.532 6.5c0 0 0.001 0.001 0.001 0.001 0.488 0.487 0.49 1.281 0 1.77-0 0-0.001 0.001-0.001 0.001l-6.532 6.5c-0.489 0.487-1.281 0.485-1.768-0.004s-0.485-1.281 0.004-1.768l4.385-4.364h-26.472c-0.69 0-1.25-0.56-1.25-1.25s0.56-1.25 1.25-1.25z"></path>
</symbol>
</defs>
</svg>
